{
  "accessors": [
    {
      "bufferView": 2,
      "componentType": 5126,
      "count": 7751,
      "max": [
        0.52115797996520996,
        0.24779999256134033,
        1.1559790372848511
      ],
      "min": [
        -0.51989299058914185,
        -1.4823850393295288,
        -0.0021869998890906572
      ],
      "type": "VEC3"
    },
    {
      "bufferView": 2,
      "byteOffset": 93012,
      "componentType": 5126,
      "count": 7751,
      "max": [
        0.99868375062942505,
        0.99975162744522095,
        0.99984610080718994
      ],
      "min": [
        -0.99764364957809448,
        -0.99993997812271118,
        -0.99988824129104614
      ],
      "type": "VEC3"
    },
    {
      "bufferView": 3,
      "componentType": 5126,
      "count": 7751,
      "max": [
        0.99921953678131104,
        0.99989742040634155,
        0.99994397163391113,
        1
      ],
      "min": [
        -0.99960273504257202,
        -0.99981498718261719,
        -0.99977290630340576,
        -1
      ],
      "type": "VEC4"
    },
    {
      "bufferView": 1,
      "componentType": 5126,
      "count": 7751,
      "max": [
        0.99970901012420654,
        0.99970698356628418
      ],
      "min": [
        0.0003169999981764704,
        0.026984000578522682
      ],
      "type": "VEC2"
    },
    {
      "bufferView": 0,
      "componentType": 5125,
      "count": 29628,
      "max": [
        7750
      ],
      "min": [
        0
      ],
      "type": "SCALAR"
    },
    {
      "bufferView": 2,
      "byteOffset": 186024,
      "componentType": 5126,
      "count": 38460,
      "max": [
        0.47324299812316895,
        0.87096697092056274,
        1.159525990486145
      ],
      "min": [
        -0.44348800182342529,
        -1.5397930145263672,
        -0.0068160002119839191
      ],
      "type": "VEC3"
    },
    {
      "bufferView": 2,
      "byteOffset": 647544,
      "componentType": 5126,
      "count": 38460,
      "max": [
        0.99998778104782104,
        0.99998325109481812,
        0.99990385770797729
      ],
      "min": [
        -0.99995386600494385,
        -0.99830001592636108,
        -0.99999475479125977
      ],
      "type": "VEC3"
    },
    {
      "bufferView": 3,
      "byteOffset": 124016,
      "componentType": 5126,
      "count": 38460,
      "max": [
        0.99999266862869263,
        0.9999879002571106,
        0.99957531690597534,
        1
      ],
      "min": [
        -0.99988877773284912,
        -0.99995434284210205,
        -0.99994319677352905,
        -1
      ],
      "type": "VEC4"
    },
    {
      "bufferView": 1,
      "byteOffset": 62008,
      "componentType": 5126,
      "count": 38460,
      "max": [
        0.99995100498199463,
        0.99987202882766724
      ],
      "min": [
        7.599999662488699e-05,
        0.00038599999970756471
      ],
      "type": "VEC2"
    },
    {
      "bufferView": 0,
      "byteOffset": 118512,
      "componentType": 5125,
      "count": 174912,
      "max": [
        38459
      ],
      "min": [
        0
      ],
      "type": "SCALAR"
    },
    {
      "bufferView": 2,
      "byteOffset": 1109064,
      "componentType": 5126,
      "count": 404,
      "max": [
        0.27731800079345703,
        0.16637900471687317,
        1.0841720104217529
      ],
      "min": [
        -0.24841499328613281,
        0.028821000829339027,
        0.91226297616958618
      ],
      "type": "VEC3"
    },
    {
      "bufferView": 2,
      "byteOffset": 1113912,
      "componentType": 5126,
      "count": 404,
      "max": [
        0.99582177400588989,
        0.99976873397827148,
        0.97860497236251831
      ],
      "min": [
        -0.99566322565078735,
        -0.6802552342414856,
        -0.57624936103820801
      ],
      "type": "VEC3"
    },
    {
      "bufferView": 3,
      "byteOffset": 739376,
      "componentType": 5126,
      "count": 404,
      "max": [
        0.99494707584381104,
        0.40853866934776306,
        0.99944204092025757,
        1
      ],
      "min": [
        -0.83265209197998047,
        -0.99948579072952271,
        -0.092110775411128998,
        1
      ],
      "type": "VEC4"
    },
    {
      "bufferView": 1,
      "byteOffset": 369688,
      "componentType": 5126,
      "count": 404,
      "max": [
        0.99703800678253174,
        0.98900902271270752
      ],
      "min": [
        0.12699100375175476,
        0.5347219705581665
      ],
      "type": "VEC2"
    },
    {
      "bufferView": 0,
      "byteOffset": 818160,
      "componentType": 5125,
      "count": 1638,
      "max": [
        403
      ],
      "min": [
        0
      ],
      "type": "SCALAR"
    }
  ],
  "asset": {
    "extras": {
      "author": "Ivan Norman (https://sketchfab.com/vanidza)",
      "license": "CC-BY-NC-4.0 (http://creativecommons.org/licenses/by-nc/4.0/)",
      "source": "https://sketchfab.com/3d-models/cartoon-crocodile-croco-roco-235cd273783e496c932820b09023211a",
      "title": "Cartoon crocodile (Croco-Roco)"
    },
    "generator": "Sketchfab-7.27.0",
    "version": "2.0"
  },
  "bufferViews": [
    {
      "buffer": 0,
      "byteLength": 824712,
      "byteOffset": 0,
      "name": "floatBufferViews",
      "target": 34963
    },
    {
      "buffer": 0,
      "byteLength": 372920,
      "byteOffset": 824712,
      "byteStride": 8,
      "name": "floatBufferViews",
      "target": 34962
    },
    {
      "buffer": 0,
      "byteLength": 1118760,
      "byteOffset": 1197632,
      "byteStride": 12,
      "name": "floatBufferViews",
      "target": 34962
    },
    {
      "buffer": 0,
      "byteLength": 745840,
      "byteOffset": 2316392,
      "byteStride": 16,
      "name": "floatBufferViews",
      "target": 34962
    }
  ],
  "buffers": [
    {
      "byteLength": 3062232,
      "uri": "scene.bin"
    }
  ],
  "images": [
    {
      "uri": "textures/None_baseColor.png"
    },
    {
      "uri": "textures/None_metallicRoughness.png"
    },
    {
      "uri": "textures/None_normal.png"
    }
  ],
  "materials": [
    {
      "doubleSided": true,
      "name": "None",
      "normalTexture": {
        "index": 2,
        "scale": 1,
        "texCoord": 0
      },
      "occlusionTexture": {
        "index": 1,
        "strength": 1,
        "texCoord": 0
      },
      "pbrMetallicRoughness": {
        "baseColorFactor": [
          1,
          1,
          1,
          1
        ],
        "baseColorTexture": {
          "index": 0,
          "texCoord": 0
        },
        "metallicFactor": 1,
        "metallicRoughnessTexture": {
          "index": 1,
          "texCoord": 0
        },
        "roughnessFactor": 1
      }
    }
  ],
  "meshes": [
    {
      "primitives": [
        {
          "attributes": {
            "NORMAL": 1,
            "POSITION": 0,
            "TANGENT": 2,
            "TEXCOORD_0": 3
          },
          "indices": 4,
          "material": 0,
          "mode": 4
        }
      ]
    },
    {
      "primitives": [
        {
          "attributes": {
            "NORMAL": 6,
            "POSITION": 5,
            "TANGENT": 7,
            "TEXCOORD_0": 8
          },
          "indices": 9,
          "material": 0,
          "mode": 4
        }
      ]
    },
    {
      "primitives": [
        {
          "attributes": {
            "NORMAL": 11,
            "POSITION": 10,
            "TANGENT": 12,
            "TEXCOORD_0": 13
          },
          "indices": 14,
          "material": 0,
          "mode": 4
        }
      ]
    }
  ],
  "nodes": [
    {
      "children": [
        1
      ],
      "name": "RootNode (gltf orientation matrix)",
      "rotation": [
        -0.70710678118654746,
        -0,
        -0,
        0.70710678118654757
      ]
    },
    {
      "children": [
        2
      ],
      "name": "RootNode (model correction matrix)"
    },
    {
      "children": [
        3,
        4,
        5
      ],
      "name": "Croco_done.obj.cleaner.materialmerger.gles"
    },
    {
      "mesh": 0,
      "name": ""
    },
    {
      "mesh": 1,
      "name": ""
    },
    {
      "mesh": 2,
      "name": ""
    }
  ],
  "samplers": [
    {
      "magFilter": 9729,
      "minFilter": 9987,
      "wrapS": 10497,
      "wrapT": 10497
    }
  ],
  "scene": 0,
  "scenes": [
    {
      "name": "OSG_Scene",
      "nodes": [
        0
      ]
    }
  ],
  "textures": [
    {
      "sampler": 0,
      "source": 0
    },
    {
      "sampler": 0,
      "source": 1
    },
    {
      "sampler": 0,
      "source": 2
    }
  ]
}

